<svg width="13" height="13" viewBox="0 0 13 13" fill="none" xmlns="http://www.w3.org/2000/svg">
<path d="M6.98706 0.563477C10.3008 0.563477 12.9871 3.24977 12.9871 6.56348C12.9871 9.87718 10.3008 12.5635 6.98706 12.5635C3.67335 12.5635 0.987061 9.87718 0.987061 6.56348C0.987061 3.24977 3.67335 0.563477 6.98706 0.563477ZM6.98901 3.13477C6.66605 3.13477 6.40423 3.39681 6.40405 3.71973V5.97949H4.14331C3.82024 5.97949 3.55835 6.24138 3.55835 6.56445C3.55855 6.88735 3.82037 7.14941 4.14331 7.14941H6.40405V9.40723C6.4042 9.73017 6.66604 9.99219 6.98901 9.99219C7.3118 9.99197 7.57382 9.73003 7.57397 9.40723V7.14941H9.82983C10.1527 7.14926 10.4146 6.88726 10.4148 6.56445C10.4148 6.24148 10.1528 5.97964 9.82983 5.97949H7.57397V3.71973C7.5738 3.39694 7.31179 3.13499 6.98901 3.13477Z" fill="#AEB9E1"/>
</svg>
