<svg width="12" height="12" viewBox="0 0 12 12" fill="none" xmlns="http://www.w3.org/2000/svg">
<path d="M11.0769 0.923279H0.923077C0.678262 0.923279 0.443473 1.02053 0.270363 1.19364C0.0972524 1.36675 0 1.60154 0 1.84636V10.154C0 10.3989 0.0972524 10.6337 0.270363 10.8068C0.443473 10.9799 0.678262 11.0771 0.923077 11.0771H11.0769C11.3217 11.0771 11.5565 10.9799 11.7296 10.8068C11.9027 10.6337 12 10.3989 12 10.154V1.84636C12 1.60154 11.9027 1.36675 11.7296 1.19364C11.5565 1.02053 11.3217 0.923279 11.0769 0.923279ZM6 6.46174C5.26555 6.46174 4.56119 6.16998 4.04186 5.65065C3.52253 5.13132 3.23077 4.42696 3.23077 3.69251C3.23077 3.5701 3.2794 3.45271 3.36595 3.36615C3.45251 3.2796 3.5699 3.23097 3.69231 3.23097C3.81472 3.23097 3.93211 3.2796 4.01866 3.36615C4.10522 3.45271 4.15385 3.5701 4.15385 3.69251C4.15385 4.18214 4.34835 4.65172 4.69457 4.99794C5.04079 5.34416 5.51037 5.53866 6 5.53866C6.48963 5.53866 6.95921 5.34416 7.30543 4.99794C7.65165 4.65172 7.84615 4.18214 7.84615 3.69251C7.84615 3.5701 7.89478 3.45271 7.98134 3.36615C8.06789 3.2796 8.18528 3.23097 8.30769 3.23097C8.4301 3.23097 8.54749 3.2796 8.63405 3.36615C8.7206 3.45271 8.76923 3.5701 8.76923 3.69251C8.76923 4.42696 8.47747 5.13132 7.95814 5.65065C7.43881 6.16998 6.73445 6.46174 6 6.46174Z" fill="white"/>
</svg>
