<svg width="12" height="13" viewBox="0 0 12 13" fill="none" xmlns="http://www.w3.org/2000/svg">
<path d="M11 0.36731H1C0.734784 0.36731 0.48043 0.472666 0.292893 0.660203C0.105357 0.847739 0 1.10209 0 1.36731V11.3673C0 11.6325 0.105357 11.8869 0.292893 12.0744C0.48043 12.262 0.734784 12.3673 1 12.3673H11C11.2652 12.3673 11.5196 12.262 11.7071 12.0744C11.8946 11.8869 12 11.6325 12 11.3673V1.36731C12 1.10209 11.8946 0.847739 11.7071 0.660203C11.5196 0.472666 11.2652 0.36731 11 0.36731ZM9.09375 5.22981L5.43125 8.72981C5.33656 8.81888 5.21124 8.86811 5.08125 8.86731C4.95317 8.8678 4.82991 8.81849 4.7375 8.72981L2.90625 6.97981C2.85546 6.9355 2.81415 6.88137 2.78481 6.82068C2.75547 6.76 2.7387 6.69401 2.73552 6.62668C2.73233 6.55934 2.74279 6.49207 2.76627 6.42888C2.78975 6.3657 2.82577 6.30791 2.87215 6.259C2.91853 6.21009 2.97432 6.17106 3.03617 6.14426C3.09802 6.11746 3.16465 6.10345 3.23205 6.10305C3.29946 6.10266 3.36625 6.1159 3.4284 6.14198C3.49056 6.16806 3.5468 6.20644 3.59375 6.25481L5.08125 7.67356L8.40625 4.50481C8.50347 4.41999 8.62971 4.37603 8.75859 4.38213C8.88746 4.38823 9.00899 4.44391 9.09777 4.53753C9.18655 4.63115 9.2357 4.75546 9.23495 4.88448C9.2342 5.01349 9.18361 5.13723 9.09375 5.22981Z" fill="white"/>
</svg>
