<svg width="13" height="13" viewBox="0 0 13 13" fill="none" xmlns="http://www.w3.org/2000/svg">
<path d="M5.11986 1.53879H7.69131C7.80497 1.53879 7.91398 1.49364 7.99435 1.41326C8.07473 1.33289 8.11988 1.22388 8.11988 1.11022C8.11988 0.99655 8.07473 0.88754 7.99435 0.807167C7.91398 0.726794 7.80497 0.681641 7.69131 0.681641H5.11986C5.00619 0.681641 4.89718 0.726794 4.81681 0.807167C4.73644 0.88754 4.69128 0.99655 4.69128 1.11022C4.69128 1.22388 4.73644 1.33289 4.81681 1.41326C4.89718 1.49364 5.00619 1.53879 5.11986 1.53879Z" fill="#AEB9E1"/>
<path d="M6.40571 2.39587C5.38854 2.39587 4.39422 2.6975 3.54847 3.26261C2.70273 3.82772 2.04355 4.63093 1.6543 5.57067C1.26505 6.51041 1.1632 7.54447 1.36164 8.5421C1.56008 9.53972 2.04989 10.4561 2.76914 11.1753C3.48838 11.8946 4.40476 12.3844 5.40238 12.5828C6.40001 12.7813 7.43407 12.6794 8.37381 12.2902C9.31355 11.9009 10.1168 11.2417 10.6819 10.396C11.247 9.55026 11.5486 8.55593 11.5486 7.53877C11.5458 6.17566 11.003 4.86919 10.0392 3.90532C9.07529 2.94145 7.76882 2.3987 6.40571 2.39587ZM8.83252 5.72268L6.71107 7.84413C6.62915 7.92334 6.51966 7.96761 6.40571 7.96761C6.29176 7.96761 6.18227 7.92334 6.10035 7.84413C6.01988 7.76287 5.97473 7.65313 5.97473 7.53877C5.97473 7.4244 6.01988 7.31466 6.10035 7.23341L8.2218 5.11196C8.26022 5.06514 8.30803 5.02689 8.36213 4.99965C8.41623 4.97242 8.47544 4.95682 8.53594 4.95385C8.59643 4.95088 8.65688 4.9606 8.7134 4.9824C8.76991 5.0042 8.82123 5.03759 8.86406 5.08042C8.90689 5.12325 8.94028 5.17457 8.96208 5.23108C8.98388 5.2876 8.9936 5.34805 8.99063 5.40854C8.98766 5.46904 8.97206 5.52825 8.94482 5.58235C8.91759 5.63645 8.87934 5.68426 8.83252 5.72268Z" fill="#AEB9E1"/>
</svg>
