<svg width="14" height="14" viewBox="0 0 14 14" fill="none" xmlns="http://www.w3.org/2000/svg">
<path d="M6.57785 0.561451C6.7663 0.237899 7.23373 0.237898 7.42218 0.56145L9.4187 3.98926C9.48773 4.10778 9.60341 4.19183 9.73746 4.22086L13.6145 5.06041C13.9804 5.13965 14.1249 5.5842 13.8754 5.86341L11.2323 8.82146C11.1409 8.92375 11.0967 9.05973 11.1105 9.1962L11.5101 13.1429C11.5479 13.5154 11.1697 13.7902 10.8271 13.6392L7.19702 12.0395C7.07151 11.9842 6.92852 11.9842 6.80301 12.0395L3.17297 13.6392C2.83033 13.7902 2.45218 13.5154 2.4899 13.1429L2.8895 9.1962C2.90331 9.05973 2.85913 8.92375 2.76774 8.82146L0.124656 5.86341C-0.124825 5.5842 0.0196157 5.13965 0.385566 5.06041L4.26257 4.22086C4.39662 4.19183 4.5123 4.10778 4.58133 3.98926L6.57785 0.561451Z" fill="#AEB9E1"/>
</svg>
