<svg width="12" height="12" viewBox="0 0 12 12" fill="none" xmlns="http://www.w3.org/2000/svg">
<path d="M6.00293 6.10352e-05C6.44363 6.10352e-05 6.80063 0.357245 6.80078 0.797913V1.20221C7.16809 1.20229 7.53174 1.27454 7.87109 1.4151C8.21065 1.55575 8.51942 1.76166 8.7793 2.02155C9.03918 2.28143 9.24509 2.5902 9.38574 2.92975C9.52637 3.26928 9.59863 3.63353 9.59863 4.00104C9.59842 4.44164 9.24143 4.79887 8.80078 4.79889C8.36011 4.79889 8.00314 4.44166 8.00293 4.00104C8.00293 3.84314 7.97156 3.68598 7.91113 3.5401C7.85071 3.39435 7.76196 3.26202 7.65039 3.15045C7.53882 3.03888 7.4065 2.95013 7.26074 2.88971C7.11486 2.82928 6.95771 2.79791 6.7998 2.79791H5C4.6811 2.79791 4.37491 2.92496 4.14941 3.15045C3.92395 3.37594 3.79688 3.68217 3.79688 4.00104C3.79698 4.31972 3.9241 4.62526 4.14941 4.85065C4.37491 5.07614 4.6811 5.20319 5 5.20319H7.2002C7.94245 5.20319 8.65483 5.49767 9.17969 6.02252C9.70449 6.54737 9.99902 7.2598 9.99902 8.00201C9.99895 8.74403 9.7043 9.45577 9.17969 9.98053C8.65483 10.5054 7.94245 10.8008 7.2002 10.8008H6.80078V11.2022C6.80063 11.6429 6.44363 12.0001 6.00293 12.0001C5.56229 12 5.20523 11.6428 5.20508 11.2022V10.8008H4.7998C4.05755 10.8008 3.34517 10.5054 2.82031 9.98053C2.2957 9.45577 2.00105 8.74404 2.00098 8.00201C2.00098 7.56131 2.35816 7.20334 2.79883 7.20319C3.23963 7.20319 3.59766 7.56121 3.59766 8.00201C3.59773 8.32068 3.72396 8.62622 3.94922 8.85162C4.17471 9.07712 4.48091 9.20416 4.7998 9.20416H5.98242C5.98924 9.20399 5.99607 9.20319 6.00293 9.20319C6.00975 9.20319 6.01666 9.20399 6.02344 9.20416H7.2002C7.51909 9.20416 7.82529 9.07712 8.05078 8.85162C8.27603 8.62622 8.40227 8.32067 8.40234 8.00201C8.40234 7.68316 8.27622 7.37691 8.05078 7.15143C7.82529 6.92593 7.51909 6.79889 7.2002 6.79889H5C4.25774 6.79889 3.54536 6.50441 3.02051 5.97955C2.49584 5.45481 2.20128 4.74308 2.20117 4.00104C2.20117 3.25881 2.49569 2.5464 3.02051 2.02155C3.54536 1.49669 4.25774 1.20221 5 1.20221H5.20508V0.797913C5.20523 0.357289 5.56229 0.00013254 6.00293 6.10352e-05Z" fill="white"/>
</svg>
