<svg width="33" height="32" viewBox="0 0 33 32" fill="none" xmlns="http://www.w3.org/2000/svg">
<circle opacity="0.2" cx="16.3474" cy="16" r="16" fill="#CB3CFF"/>
<path d="M23.0138 8H9.6805C9.32688 8 8.98774 8.14048 8.73769 8.39052C8.48764 8.64057 8.34717 8.97971 8.34717 9.33333V20V22.6667C8.34717 23.0203 8.48764 23.3594 8.73769 23.6095C8.98774 23.8595 9.32688 24 9.6805 24H23.0138C23.3675 24 23.7066 23.8595 23.9566 23.6095C24.2067 23.3594 24.3472 23.0203 24.3472 22.6667V9.33333C24.3472 8.97971 24.2067 8.64057 23.9566 8.39052C23.7066 8.14048 23.3675 8 23.0138 8V8ZM20.6222 14.6667C20.3712 14.4193 20.0329 14.2807 19.6805 14.2807C19.3281 14.2807 18.9899 14.4193 18.7388 14.6667L15.0138 18.3917L13.2888 16.6667C13.0378 16.4193 12.6996 16.2807 12.3472 16.2807C11.9948 16.2807 11.6565 16.4193 11.4055 16.6667L9.6805 18.3917V9.33333H23.0138V17.0583L20.6222 14.6667Z" fill="#CB3CFF"/>
</svg>
