<svg width="15" height="15" viewBox="0 0 15 15" fill="none" xmlns="http://www.w3.org/2000/svg">
<path d="M7.58291 2.74033C11.7384 2.74046 13.8512 5.80467 14.4784 6.91122C14.6179 7.1573 14.6178 7.45028 14.4784 7.69638C13.8512 8.80292 11.7384 11.8681 7.58291 11.8683C3.4272 11.8683 1.31463 8.80295 0.687402 7.69638C0.54789 7.45023 0.547879 7.15737 0.687402 6.91122C1.31481 5.80445 3.42751 2.74033 7.58291 2.74033ZM7.58389 4.76865C6.18356 4.76868 5.04873 5.90444 5.04873 7.30478C5.04896 8.70492 6.1837 9.8399 7.58389 9.83994C8.9841 9.83994 10.1188 8.70494 10.119 7.30478C10.119 5.90442 8.98424 4.76865 7.58389 4.76865Z" fill="#AEB9E1"/>
</svg>
