<svg width="12" height="13" viewBox="0 0 12 13" fill="none" xmlns="http://www.w3.org/2000/svg">
<path d="M11 0.367188H1C0.734783 0.367188 0.48043 0.472544 0.292893 0.660081C0.105357 0.847617 0 1.10197 0 1.36719V9.36719V11.3672C0 11.6324 0.105357 11.8868 0.292893 12.0743C0.48043 12.2618 0.734783 12.3672 1 12.3672H11C11.2652 12.3672 11.5196 12.2618 11.7071 12.0743C11.8946 11.8868 12 11.6324 12 11.3672V1.36719C12 1.10197 11.8946 0.847617 11.7071 0.660081C11.5196 0.472544 11.2652 0.367188 11 0.367188ZM9.20625 5.36719C9.01799 5.18169 8.7643 5.0777 8.5 5.0777C8.2357 5.0777 7.98201 5.18169 7.79375 5.36719L5 8.16094L3.70625 6.86719C3.51799 6.68169 3.2643 6.5777 3 6.5777C2.7357 6.5777 2.48201 6.68169 2.29375 6.86719L1 8.16094V1.36719H11V7.16094L9.20625 5.36719Z" fill="white"/>
</svg>
