<svg width="13" height="13" viewBox="0 0 13 13" fill="none" xmlns="http://www.w3.org/2000/svg">
<path d="M12.9429 11.553C12.9429 11.6754 12.8942 11.7928 12.8077 11.8794C12.7211 11.9659 12.6037 12.0146 12.4813 12.0146H1.40441C1.282 12.0146 1.16461 11.9659 1.07805 11.8794C0.991497 11.7928 0.942871 11.6754 0.942871 11.553V2.32226C0.942871 2.19985 0.991497 2.08245 1.07805 1.9959C1.16461 1.90934 1.282 1.86072 1.40441 1.86072C1.52682 1.86072 1.64421 1.90934 1.73077 1.9959C1.81732 2.08245 1.86595 2.19985 1.86595 2.32226V8.59341L4.76787 5.68572C4.85538 5.59905 4.97356 5.55043 5.09672 5.55043C5.21988 5.55043 5.33806 5.59905 5.42556 5.68572L6.94287 7.2088L9.75249 4.39918L8.92172 3.57418C8.85911 3.50745 8.81667 3.42435 8.79931 3.33451C8.78195 3.24466 8.79039 3.15174 8.82364 3.06649C8.85957 2.98293 8.9191 2.91168 8.99494 2.86146C9.07077 2.81125 9.15961 2.78426 9.25056 2.78379H11.5583C11.6807 2.78379 11.7981 2.83242 11.8846 2.91898C11.9712 3.00553 12.0198 3.12293 12.0198 3.24533V5.55303C12.0201 5.64415 11.9934 5.73331 11.9431 5.80928C11.8928 5.88526 11.8211 5.94464 11.7371 5.97995C11.6802 6.00256 11.6195 6.0143 11.5583 6.01456C11.4357 6.01405 11.318 5.96656 11.2294 5.88187L10.4044 5.0511L7.27172 8.18956C7.18421 8.27623 7.06603 8.32485 6.94287 8.32485C6.81971 8.32485 6.70153 8.27623 6.61403 8.18956L5.09672 6.66649L1.86595 9.89726V11.0915H12.4813C12.6037 11.0915 12.7211 11.1401 12.8077 11.2267C12.8942 11.3132 12.9429 11.4306 12.9429 11.553Z" fill="#AEB9E1"/>
</svg>
