<svg width="13" height="13" viewBox="0 0 13 13" fill="none" xmlns="http://www.w3.org/2000/svg">
<path d="M11.0947 1.49892C10.9244 1.32932 10.7221 1.19516 10.4997 1.10417C10.2772 1.01318 10.0389 0.967165 9.79856 0.968792C9.55822 0.970419 9.32057 1.01965 9.09936 1.11365C8.87815 1.20764 8.67776 1.34453 8.50975 1.51642L1.64715 8.37912C1.3937 8.63258 1.21301 8.94949 1.12401 9.29671L0.542819 11.5641C0.467311 11.8586 0.735111 12.1264 1.02967 12.0508L3.29714 11.4693C3.64426 11.3802 3.96108 11.1996 4.21448 10.9462L11.0772 4.08338C11.2491 3.91545 11.386 3.7151 11.4801 3.49392C11.5741 3.27275 11.6233 3.03512 11.625 2.7948C11.6266 2.55447 11.5806 2.3162 11.4895 2.09377C11.3985 1.87134 11.2643 1.66916 11.0947 1.49892Z" fill="#AEB9E1" stroke="#AEB9E1" stroke-linecap="round" stroke-linejoin="round"/>
</svg>
