<svg width="14" height="14" viewBox="0 0 14 14" fill="none" xmlns="http://www.w3.org/2000/svg">
<path d="M6.57784 0.561451C6.76629 0.237899 7.23371 0.237898 7.42216 0.56145L9.41868 3.98926C9.48772 4.10778 9.60339 4.19183 9.73745 4.22086L13.6144 5.06041C13.9804 5.13965 14.1248 5.5842 13.8754 5.86341L11.2323 8.82146C11.1409 8.92375 11.0967 9.05973 11.1105 9.1962L11.5101 13.1429C11.5478 13.5154 11.1697 13.7902 10.827 13.6392L7.19701 12.0395C7.07149 11.9842 6.92851 11.9842 6.80299 12.0395L3.17296 13.6392C2.83032 13.7902 2.45216 13.5154 2.48988 13.1429L2.88948 9.1962C2.9033 9.05973 2.85911 8.92375 2.76772 8.82146L0.12464 5.86341C-0.124841 5.5842 0.0196004 5.13965 0.385551 5.06041L4.26255 4.22086C4.39661 4.19183 4.51228 4.10778 4.58132 3.98926L6.57784 0.561451Z" fill="#CB3CFF"/>
</svg>
