<svg width="12" height="12" viewBox="0 0 12 12" fill="none" xmlns="http://www.w3.org/2000/svg">
<path d="M11.0769 2.53356H8.72885C8.61778 1.89034 8.28306 1.30703 7.78378 0.886567C7.2845 0.46611 6.65274 0.235535 6 0.235535C5.34726 0.235535 4.7155 0.46611 4.21622 0.886567C3.71694 1.30703 3.38222 1.89034 3.27115 2.53356H0.923077C0.678262 2.53356 0.443473 2.63081 0.270363 2.80392C0.0972524 2.97703 0 3.21182 0 3.45663V10.8412C0 11.0861 0.0972524 11.3209 0.270363 11.494C0.443473 11.6671 0.678262 11.7643 0.923077 11.7643H11.0769C11.3217 11.7643 11.5565 11.6671 11.7296 11.494C11.9027 11.3209 12 11.0861 12 10.8412V3.45663C12 3.21182 11.9027 2.97703 11.7296 2.80392C11.5565 2.63081 11.3217 2.53356 11.0769 2.53356ZM6 1.14894C6.40919 1.14972 6.8066 1.286 7.13016 1.5365C7.45372 1.787 7.68521 2.1376 7.78846 2.53356H4.21154C4.31479 2.1376 4.54628 1.787 4.86984 1.5365C5.19339 1.286 5.59081 1.14972 6 1.14894Z" fill="white"/>
</svg>
