<svg width="20" height="20" viewBox="0 0 20 20" fill="none" xmlns="http://www.w3.org/2000/svg">
<circle cx="10" cy="10" r="9.7" fill="white" stroke="#E9EAF3" stroke-width="0.6"/>
<g clip-path="url(#clip0_26_1285)">
<path d="M14.9943 9.60231H14.6251V9.58329H10.5001V11.4166H13.0904C12.7125 12.4839 11.697 13.25 10.5001 13.25C8.98139 13.25 7.75008 12.0186 7.75008 10.5C7.75008 8.98127 8.98139 7.74996 10.5001 7.74996C11.2011 7.74996 11.8389 8.01442 12.3245 8.4464L13.6209 7.15C12.8023 6.38711 11.7073 5.91663 10.5001 5.91663C7.96894 5.91663 5.91675 7.96881 5.91675 10.5C5.91675 13.0311 7.96894 15.0833 10.5001 15.0833C13.0312 15.0833 15.0834 13.0311 15.0834 10.5C15.0834 10.1926 15.0518 9.89267 14.9943 9.60231Z" fill="#FFC107"/>
<path d="M6.44507 8.36665L7.95092 9.471C8.35838 8.46221 9.34517 7.74996 10.4999 7.74996C11.201 7.74996 11.8387 8.01442 12.3243 8.4464L13.6207 7.15C12.8022 6.38711 11.7072 5.91663 10.4999 5.91663C8.73949 5.91663 7.21278 6.91052 6.44507 8.36665Z" fill="#FF3D00"/>
<path d="M10.5 15.0834C11.6839 15.0834 12.7596 14.6303 13.5729 13.8935L12.1543 12.6932C11.6788 13.055 11.0976 13.2507 10.5 13.25C9.30787 13.25 8.29564 12.4899 7.9143 11.4291L6.41968 12.5806C7.17822 14.065 8.71868 15.0834 10.5 15.0834Z" fill="#4CAF50"/>
<path d="M14.9942 9.60239H14.625V9.58337H10.5V11.4167H13.0903C12.9095 11.9246 12.5839 12.3685 12.1537 12.6934L12.1544 12.6929L13.5729 13.8933C13.4725 13.9845 15.0833 12.7917 15.0833 10.5C15.0833 10.1927 15.0517 9.89275 14.9942 9.60239Z" fill="#1976D2"/>
</g>
<defs>
<clipPath id="clip0_26_1285">
<rect width="11" height="11" fill="white" transform="translate(5 5)"/>
</clipPath>
</defs>
</svg>
