<svg width="20" height="20" viewBox="0 0 20 20" fill="none" xmlns="http://www.w3.org/2000/svg">
<path d="M10 20C15.5228 20 20 15.5228 20 10C20 4.47715 15.5228 0 10 0C4.47715 0 0 4.47715 0 10C0 15.5228 4.47715 20 10 20Z" fill="#FF4500"/>
<path d="M16.6523 10.0953C16.6523 9.28466 15.9968 8.64083 15.1979 8.64083C14.8205 8.64032 14.4575 8.78555 14.1846 9.04623C13.1832 8.33083 11.8121 7.86599 10.2862 7.80638L10.9537 4.68287L13.1234 5.14771C13.1474 5.69615 13.6003 6.13732 14.1608 6.13732C14.733 6.13732 15.1979 5.67248 15.1979 5.09998C15.1979 4.52779 14.733 4.06287 14.1608 4.06287C13.7555 4.06287 13.3977 4.3013 13.2308 4.64709L10.8108 4.13443C10.7392 4.1224 10.6677 4.13443 10.6199 4.17021C10.5603 4.20599 10.5246 4.26552 10.5128 4.33708L9.77344 7.81818C8.22367 7.86599 6.82875 8.33083 5.81547 9.05818C5.54255 8.79751 5.17951 8.65231 4.80211 8.65287C3.99141 8.65287 3.34766 9.30841 3.34766 10.1073C3.34766 10.7033 3.70523 11.204 4.20609 11.4307C4.18177 11.5764 4.1698 11.724 4.17031 11.8718C4.17031 14.1129 6.78125 15.9371 10.0001 15.9371C13.219 15.9371 15.8299 14.1249 15.8299 11.8718C15.8299 11.724 15.818 11.5765 15.7941 11.4307C16.2948 11.204 16.6523 10.6913 16.6523 10.0953ZM6.66188 11.1324C6.66188 10.5602 7.12672 10.0953 7.69922 10.0953C8.27141 10.0953 8.73633 10.5601 8.73633 11.1324C8.73633 11.7047 8.27148 12.1697 7.69922 12.1697C7.1268 12.1815 6.66188 11.7047 6.66188 11.1324ZM12.4679 13.8864C11.7526 14.6018 10.3934 14.6495 10.0001 14.6495C9.59477 14.6495 8.2357 14.5897 7.53211 13.8864C7.425 13.7791 7.425 13.6122 7.53211 13.5049C7.63945 13.3978 7.80633 13.3978 7.91367 13.5049C8.3668 13.958 9.32055 14.1129 10.0001 14.1129C10.6796 14.1129 11.6452 13.9579 12.0863 13.5049C12.1937 13.3978 12.3605 13.3978 12.4679 13.5049C12.5632 13.6122 12.5632 13.7791 12.4679 13.8864ZM12.277 12.1815C11.7048 12.1815 11.2399 11.7167 11.2399 11.1444C11.2399 10.5722 11.7048 10.1073 12.277 10.1073C12.8495 10.1073 13.3143 10.5722 13.3143 11.1444C13.3143 11.7046 12.8495 12.1815 12.277 12.1815Z" fill="white"/>
</svg>
