<svg width="20" height="20" viewBox="0 0 20 20" fill="none" xmlns="http://www.w3.org/2000/svg">
<circle cx="10" cy="10" r="9.7" fill="white" stroke="#E9EAF3" stroke-width="0.6"/>
<path d="M9.66667 11.5833L12.0454 10.2083L9.66667 8.83333V11.5833ZM14.965 7.99458C15.0246 8.21 15.0658 8.49875 15.0933 8.86542C15.1254 9.23208 15.1392 9.54833 15.1392 9.82333L15.1667 10.2083C15.1667 11.2121 15.0933 11.95 14.965 12.4221C14.8504 12.8346 14.5846 13.1004 14.1721 13.215C13.9567 13.2746 13.5625 13.3158 12.9575 13.3433C12.3617 13.3754 11.8163 13.3892 11.3121 13.3892L10.5833 13.4167C8.66292 13.4167 7.46667 13.3433 6.99458 13.215C6.58208 13.1004 6.31625 12.8346 6.20167 12.4221C6.14208 12.2067 6.10083 11.9179 6.07333 11.5512C6.04125 11.1846 6.0275 10.8683 6.0275 10.5933L6 10.2083C6 9.20458 6.07333 8.46667 6.20167 7.99458C6.31625 7.58208 6.58208 7.31625 6.99458 7.20167C7.21 7.14208 7.60417 7.10083 8.20917 7.07333C8.805 7.04125 9.35042 7.0275 9.85458 7.0275L10.5833 7C12.5038 7 13.7 7.07333 14.1721 7.20167C14.5846 7.31625 14.8504 7.58208 14.965 7.99458Z" fill="#A70707"/>
</svg>
